<svg xmlns="http://www.w3.org/2000/svg" width="542" height="542" viewBox="0 0 800 800" style=""><path fill="#FFFFFF" width="800" height="800" d="M0 0 L800 0 L800 800 L0 800 Z" class="ekAPKIER_0"></path><g fill="none" stroke="#E1E1E1" stroke-width="1"><path d="M769 229L1037 260.9M927 880L731 737 520 660 309 538 40 599 295 764 126.5 879.5 40 599-197 493 102 382-31 229 126.5 79.5-69-63" class="ekAPKIER_1"></path><path d="M-31 229L237 261 390 382 603 493 308.5 537.5 101.5 381.5M370 905L295 764" class="ekAPKIER_2"></path><path d="M520 660L578 842 731 737 840 599 603 493 520 660 295 764 309 538 390 382 539 269 769 229 577.5 41.5 370 105 295 -36 126.5 79.5 237 261 102 382 40 599 -69 737 127 880" class="ekAPKIER_3"></path><path d="M520-140L578.5 42.5 731-63M603 493L539 269 237 261 370 105M902 382L539 269M390 382L102 382" class="ekAPKIER_4"></path><path d="M-222 42L126.5 79.5 370 105 539 269 577.5 41.5 927 80 769 229 902 382 603 493 731 737M295-36L577.5 41.5M578 842L295 764M40-201L127 80M102 382L-261 269" class="ekAPKIER_5"></path></g><g fill="#DDDDDD"><path d="M764,229A5,5 0,1,1 774,229A5,5 0,1,1 764,229" class="ekAPKIER_6"></path><path d="M534,269A5,5 0,1,1 544,269A5,5 0,1,1 534,269" class="ekAPKIER_7"></path><path d="M598,493A5,5 0,1,1 608,493A5,5 0,1,1 598,493" class="ekAPKIER_8"></path><path d="M726,737A5,5 0,1,1 736,737A5,5 0,1,1 726,737" class="ekAPKIER_9"></path><path d="M515,660A5,5 0,1,1 525,660A5,5 0,1,1 515,660" class="ekAPKIER_10"></path><path d="M304,538A5,5 0,1,1 314,538A5,5 0,1,1 304,538" class="ekAPKIER_11"></path><path d="M290,764A5,5 0,1,1 300,764A5,5 0,1,1 290,764" class="ekAPKIER_12"></path><path d="M35,599A5,5 0,1,1 45,599A5,5 0,1,1 35,599" class="ekAPKIER_13"></path><path d="M97,382A5,5 0,1,1 107,382A5,5 0,1,1 97,382" class="ekAPKIER_14"></path><path d="M122,80A5,5 0,1,1 132,80A5,5 0,1,1 122,80" class="ekAPKIER_15"></path><path d="M365,105A5,5 0,1,1 375,105A5,5 0,1,1 365,105" class="ekAPKIER_16"></path><path d="M573,42A5,5 0,1,1 583,42A5,5 0,1,1 573,42" class="ekAPKIER_17"></path><path d="M232,261A5,5 0,1,1 242,261A5,5 0,1,1 232,261" class="ekAPKIER_18"></path><path d="M385,382A5,5 0,1,1 395,382A5,5 0,1,1 385,382" class="ekAPKIER_19"></path></g><style data-made-with="vivus-instant">.ekAPKIER_0{stroke-dasharray:3200 3202;stroke-dashoffset:3201;animation:ekAPKIER_draw 179ms ease 0ms forwards;}.ekAPKIER_1{stroke-dasharray:3299 3301;stroke-dashoffset:3300;animation:ekAPKIER_draw 185ms ease 179ms forwards;}.ekAPKIER_2{stroke-dasharray:1422 1424;stroke-dashoffset:1423;animation:ekAPKIER_draw 79ms ease 364ms forwards;}.ekAPKIER_3{stroke-dasharray:3957 3959;stroke-dashoffset:3958;animation:ekAPKIER_draw 222ms ease 444ms forwards;}.ekAPKIER_4{stroke-dasharray:1786 1788;stroke-dashoffset:1787;animation:ekAPKIER_draw 100ms ease 666ms forwards;}.ekAPKIER_5{stroke-dasharray:3689 3691;stroke-dashoffset:3690;animation:ekAPKIER_draw 207ms ease 767ms forwards;}.ekAPKIER_6{stroke-dasharray:32 34;stroke-dashoffset:33;animation:ekAPKIER_draw 1ms ease 974ms forwards;}.ekAPKIER_7{stroke-dasharray:32 34;stroke-dashoffset:33;animation:ekAPKIER_draw 1ms ease 975ms forwards;}.ekAPKIER_8{stroke-dasharray:32 34;stroke-dashoffset:33;animation:ekAPKIER_draw 1ms ease 977ms forwards;}.ekAPKIER_9{stroke-dasharray:32 34;stroke-dashoffset:33;animation:ekAPKIER_draw 1ms ease 979ms forwards;}.ekAPKIER_10{stroke-dasharray:32 34;stroke-dashoffset:33;animation:ekAPKIER_draw 1ms ease 981ms forwards;}.ekAPKIER_11{stroke-dasharray:32 34;stroke-dashoffset:33;animation:ekAPKIER_draw 1ms ease 983ms forwards;}.ekAPKIER_12{stroke-dasharray:32 34;stroke-dashoffset:33;animation:ekAPKIER_draw 1ms ease 985ms forwards;}.ekAPKIER_13{stroke-dasharray:32 34;stroke-dashoffset:33;animation:ekAPKIER_draw 1ms ease 987ms forwards;}.ekAPKIER_14{stroke-dasharray:32 34;stroke-dashoffset:33;animation:ekAPKIER_draw 1ms ease 988ms forwards;}.ekAPKIER_15{stroke-dasharray:32 34;stroke-dashoffset:33;animation:ekAPKIER_draw 1ms ease 990ms forwards;}.ekAPKIER_16{stroke-dasharray:32 34;stroke-dashoffset:33;animation:ekAPKIER_draw 1ms ease 992ms forwards;}.ekAPKIER_17{stroke-dasharray:32 34;stroke-dashoffset:33;animation:ekAPKIER_draw 1ms ease 994ms forwards;}.ekAPKIER_18{stroke-dasharray:32 34;stroke-dashoffset:33;animation:ekAPKIER_draw 1ms ease 996ms forwards;}.ekAPKIER_19{stroke-dasharray:32 34;stroke-dashoffset:33;animation:ekAPKIER_draw 1ms ease 998ms forwards;}@keyframes ekAPKIER_draw{100%{stroke-dashoffset:0;}}@keyframes ekAPKIER_fade{0%{stroke-opacity:1;}92.3076923076923%{stroke-opacity:1;}100%{stroke-opacity:0;}}</style></svg>