<svg width="472" height="114" viewBox="0 0 472 114" fill="none" xmlns="http://www.w3.org/2000/svg">
<g clip-path="url(#clip0_11707_9047)">
<path fill-rule="evenodd" clip-rule="evenodd" d="M57.1231 0.388428L25.416 65.175L46.4284 86.122C49.2661 88.9496 53.113 90.5386 57.1231 90.5386V0.388428Z" fill="url(#paint0_linear_11707_9047)"/>
<path fill-rule="evenodd" clip-rule="evenodd" d="M57.1582 0.388428L88.8653 65.175L67.8529 86.122C65.0159 88.9496 61.1691 90.5386 57.1582 90.5386V0.388428Z" fill="url(#paint1_linear_11707_9047)"/>
<path fill-rule="evenodd" clip-rule="evenodd" d="M57.1582 25.6934V113.74C61.1705 113.74 65.0174 112.151 67.855 109.324L88.1748 89.0658L57.1582 25.6934Z" fill="url(#paint2_linear_11707_9047)"/>
<path fill-rule="evenodd" clip-rule="evenodd" d="M57.0993 25.6934V113.74C53.0863 113.74 49.2394 112.151 46.4025 109.324L26.082 89.0658L57.0993 25.6934Z" fill="url(#paint3_linear_11707_9047)"/>
<path fill-rule="evenodd" clip-rule="evenodd" d="M96.453 80.7869L57.1054 0.388428L17.7578 80.7869L46.4093 109.35C49.247 112.179 53.0924 113.768 57.104 113.766C61.1162 113.766 64.9638 112.179 67.8001 109.351L96.453 80.7869Z" fill="url(#paint4_linear_11707_9047)"/>
<path fill-rule="evenodd" clip-rule="evenodd" d="M57.1054 0.388428L17.7578 80.7869L46.41 109.35C49.2469 112.179 53.0931 113.768 57.1039 113.766" fill="url(#paint5_linear_11707_9047)"/>
<path fill-rule="evenodd" clip-rule="evenodd" d="M57.1582 113.766C61.1712 113.766 65.0181 112.179 67.8543 109.351L96.5072 80.7869L57.1596 0.388428" fill="url(#paint6_linear_11707_9047)"/>
<path fill-rule="evenodd" clip-rule="evenodd" d="M57.087 13.041L36.4033 55.3039L48.3136 67.1768C50.6413 69.4966 53.7969 70.8 57.087 70.8V13.041Z" fill="url(#paint7_linear_11707_9047)"/>
</g>
<path d="M190.01 55.5466C192.662 56.2569 194.722 57.5829 196.19 59.5244C197.705 61.4186 198.463 64.2362 198.463 67.9772C198.463 72.902 197.066 76.5957 194.272 79.0581C191.525 81.5205 187.074 82.7518 180.918 82.7518H142.063V32.0352H179.781C191.052 32.0352 196.687 36.4154 196.687 45.176C196.687 47.8752 196.095 50.0535 194.911 51.7109C193.775 53.3683 192.141 54.5285 190.01 55.1915V55.5466ZM175.732 52.0661C177.579 52.0661 178.953 51.6872 179.852 50.9296C180.752 50.1719 181.202 48.9644 181.202 47.307C181.202 45.6969 180.752 44.513 179.852 43.7554C178.953 42.9977 177.579 42.6189 175.732 42.6189H156.27V52.0661H175.732ZM176.656 72.2391C178.882 72.2391 180.468 71.8129 181.415 70.9605C182.409 70.0608 182.907 68.6875 182.907 66.8407C182.907 64.9938 182.409 63.6442 181.415 62.7919C180.468 61.8921 178.882 61.4423 176.656 61.4423H156.27V72.2391H176.656Z" fill="black"/>
<path d="M228.697 42.903C237.031 42.903 243.353 44.7025 247.663 48.3014C252.019 51.9003 254.197 56.9909 254.197 63.5732C254.197 70.1555 252.019 75.2461 247.663 78.845C243.353 82.444 237.031 84.2434 228.697 84.2434C220.315 84.2434 213.946 82.444 209.59 78.845C205.28 75.2461 203.126 70.1555 203.126 63.5732C203.126 56.9909 205.28 51.9003 209.59 48.3014C213.946 44.7025 220.315 42.903 228.697 42.903ZM228.697 74.0149C232.296 74.0149 235.019 73.1151 236.866 71.3157C238.76 69.4688 239.707 66.888 239.707 63.5732C239.707 60.2584 238.76 57.7013 236.866 55.9018C235.019 54.1023 232.296 53.2026 228.697 53.2026C225.098 53.2026 222.352 54.1023 220.457 55.9018C218.611 57.7013 217.687 60.2584 217.687 63.5732C217.687 66.888 218.611 69.4688 220.457 71.3157C222.352 73.1151 225.098 74.0149 228.697 74.0149Z" fill="black"/>
<path d="M273.752 44.3947V49.2248H274.178C276.357 47.2359 278.772 45.7916 281.424 44.8919C284.076 43.9448 287.083 43.4712 290.445 43.4712C295.606 43.4712 299.702 44.7025 302.733 47.1649C305.811 49.58 307.35 53.2026 307.35 58.0327V82.7518H293.428V62.4367C293.428 57.2277 290.516 54.6232 284.691 54.6232C281.755 54.6232 279.245 55.4282 277.162 57.0383C275.078 58.601 274.036 61.1818 274.036 64.7807V82.7518H260.043V44.3947H273.752Z" fill="black"/>
<path d="M339.349 39.1383C336.934 39.1383 335.134 39.4224 333.95 39.9907C332.767 40.559 332.293 41.7665 332.53 43.6133L332.601 44.3947H342.687V53.0605H332.601V82.7518H318.608V53.0605H312.144V44.3947H318.608V41.6955C318.608 37.1021 320.076 33.9057 323.012 32.1062C325.995 30.3067 330.517 29.407 336.579 29.407C338.331 29.407 339.822 29.478 341.054 29.6201C342.332 29.7621 343.161 29.8332 343.54 29.8332V39.4224C343.256 39.4224 342.735 39.3751 341.977 39.2804C341.219 39.1857 340.343 39.1383 339.349 39.1383ZM361.369 82.7518H347.375V44.3947H361.369V82.7518ZM361.511 39.4935H347.233V31.0407H361.511V39.4935Z" fill="black"/>
<path d="M368.741 44.3947H382.45V49.4379H382.876C384.818 47.3543 387.138 45.839 389.837 44.8919C392.584 43.8974 395.828 43.4002 399.569 43.4002C400.516 43.4002 401.605 43.4949 402.836 43.6843V57.2514C400.658 56.7305 398.527 56.47 396.443 56.47C392.418 56.47 389.127 57.2751 386.57 58.8851C384.013 60.4478 382.734 63.2891 382.734 67.4089V82.7518H368.741V44.3947Z" fill="black"/>
<path d="M456.882 63.5732C456.882 64.8991 456.811 66.0593 456.669 67.0538H420.656C421.367 72.4048 424.989 75.0803 431.524 75.0803C434.697 75.0803 437.017 74.6305 438.485 73.7307C439.953 72.831 440.853 71.8839 441.184 70.8895H456.314C456.03 74.6778 453.994 77.8506 450.205 80.4077C446.417 82.9649 440.19 84.2434 431.524 84.2434C423.19 84.2434 416.844 82.444 412.488 78.845C408.178 75.2461 406.024 70.1555 406.024 63.5732C406.024 56.9909 408.178 51.9003 412.488 48.3014C416.797 44.7025 423.119 42.903 431.453 42.903C439.787 42.903 446.109 44.7025 450.418 48.3014C454.728 51.9003 456.882 56.9909 456.882 63.5732ZM431.453 52.1371C425.676 52.1371 422.195 54.2444 421.011 58.4589H441.966C441.35 56.328 440.166 54.7416 438.414 53.6998C436.662 52.658 434.342 52.1371 431.453 52.1371Z" fill="black"/>
<defs>
<linearGradient id="paint0_linear_11707_9047" x1="45.2968" y1="2.24507" x2="136.896" y2="94.1287" gradientUnits="userSpaceOnUse">
<stop stop-color="white" stop-opacity="0"/>
<stop offset="1" stop-color="#FF1B00"/>
</linearGradient>
<linearGradient id="paint1_linear_11707_9047" x1="43.7941" y1="-4.15569" x2="96.2385" y2="109.329" gradientUnits="userSpaceOnUse">
<stop stop-color="#FFD5BC" stop-opacity="0"/>
<stop offset="0.5" stop-color="#FFD5BC" stop-opacity="0.25"/>
<stop offset="1" stop-color="#FFD5BC"/>
</linearGradient>
<linearGradient id="paint2_linear_11707_9047" x1="70.0165" y1="15.9035" x2="88.7527" y2="116.238" gradientUnits="userSpaceOnUse">
<stop stop-color="#FFD5BC" stop-opacity="0"/>
<stop offset="1" stop-color="#FF1B00" stop-opacity="0.5"/>
</linearGradient>
<linearGradient id="paint3_linear_11707_9047" x1="44.2404" y1="15.9035" x2="25.5043" y2="116.238" gradientUnits="userSpaceOnUse">
<stop stop-color="white" stop-opacity="0"/>
<stop offset="1" stop-color="#FFD5BC"/>
</linearGradient>
<linearGradient id="paint4_linear_11707_9047" x1="71.663" y1="-13.5369" x2="71.663" y2="113.767" gradientUnits="userSpaceOnUse">
<stop stop-color="#FFD5BC" stop-opacity="0"/>
<stop offset="0.5" stop-color="#FFD5BC" stop-opacity="0.25"/>
<stop offset="1" stop-color="#FFD5BC"/>
</linearGradient>
<linearGradient id="paint5_linear_11707_9047" x1="43.8866" y1="38.5297" x2="73.706" y2="136.973" gradientUnits="userSpaceOnUse">
<stop stop-color="#FFD5BC" stop-opacity="0"/>
<stop offset="0.5" stop-color="#FFD5BC" stop-opacity="0.25"/>
<stop offset="1" stop-color="#FFD5BC"/>
</linearGradient>
<linearGradient id="paint6_linear_11707_9047" x1="79.1961" y1="33.2373" x2="66.9288" y2="121.803" gradientUnits="userSpaceOnUse">
<stop stop-color="#FFD5BC" stop-opacity="0"/>
<stop offset="0.5" stop-color="#FFD5BC" stop-opacity="0.25"/>
<stop offset="1" stop-color="#FFD5BC"/>
</linearGradient>
<linearGradient id="paint7_linear_11707_9047" x1="48.1301" y1="35.8039" x2="63.9268" y2="60.2037" gradientUnits="userSpaceOnUse">
<stop stop-color="white" stop-opacity="0.4"/>
<stop offset="0.5" stop-color="white" stop-opacity="0.3"/>
<stop offset="1" stop-color="white" stop-opacity="0"/>
</linearGradient>
<clipPath id="clip0_11707_9047">
<rect width="113.651" height="113.651" fill="white"/>
</clipPath>
</defs>
</svg>
