<svg width="495" height="128" viewBox="0 0 495 128" fill="none" xmlns="http://www.w3.org/2000/svg">
<path d="M185.634 98.664C200.298 98.664 211.842 89.096 214.442 74.952H199.154C196.554 80.984 191.77 84.312 185.634 84.312C177.522 84.312 171.178 77.552 171.178 68.92C171.178 60.184 177.418 53.528 185.634 53.528C191.666 53.528 196.762 56.856 199.154 62.368H214.234C211.53 48.536 200.298 39.28 185.738 39.28C168.682 39.28 155.786 51.968 155.786 68.816C155.786 85.664 168.682 98.664 185.634 98.664Z" fill="#24272B"/>
<path d="M270.29 40.84L268.73 46.144C263.842 41.88 257.498 39.28 250.218 39.28C233.37 39.28 220.786 51.968 220.786 68.92C220.786 85.872 233.37 98.664 250.218 98.664C257.394 98.664 263.634 96.168 268.418 91.904L269.77 97H281.626V40.84H270.29ZM251.466 84.312C242.626 84.312 236.178 77.656 236.178 68.92C236.178 60.08 242.626 53.528 251.466 53.528C260.306 53.528 266.754 60.08 266.754 68.92C266.754 77.76 260.306 84.312 251.466 84.312Z" fill="#24272B"/>
<path d="M325.039 40.528C317.759 40.528 312.767 42.816 308.711 47.808L306.007 40.84H296.335V97H311.519V67.88C311.519 58.728 314.847 54.88 323.375 54.88H330.031V40.528H325.039Z" fill="#24272B"/>
<path d="M403.856 39.592C396.68 39.592 390.336 43.128 386.488 48.536C383.16 42.92 377.336 39.592 370.16 39.592C363.504 39.592 357.368 42.816 353.416 47.808L350.608 40.84H340V97H355.184V66.632C355.184 57.896 359.24 52.904 366.104 52.904C371.512 52.904 374.424 56.856 374.424 64.344V97H389.192V66.632C389.192 57.896 393.248 52.904 400.008 52.904C405.52 52.904 408.432 56.856 408.432 64.344V97H423.616V61.848C423.616 48.64 415.504 39.592 403.856 39.592Z" fill="#24272B"/>
<path d="M483.362 40.84L481.802 46.144C476.914 41.88 470.57 39.28 463.29 39.28C446.442 39.28 433.858 51.968 433.858 68.92C433.858 85.872 446.442 98.664 463.29 98.664C470.466 98.664 476.706 96.168 481.49 91.904L482.842 97H494.698V40.84H483.362ZM464.538 84.312C455.698 84.312 449.25 77.656 449.25 68.92C449.25 60.08 455.698 53.528 464.538 53.528C473.378 53.528 479.826 60.08 479.826 68.92C479.826 77.76 473.378 84.312 464.538 84.312Z" fill="#24272B"/>
<path fill-rule="evenodd" clip-rule="evenodd" d="M18.6249 57.1428C23.8617 57.1429 28.107 62.0464 28.107 68.0953C28.1069 71.7329 29.8016 76.7235 33.5284 80.9787C37.1339 85.0954 42.0432 87.8095 47.5452 87.8095C53.2575 87.8095 58.9173 85.0344 63.164 80.7359C67.5457 76.3009 69.354 71.4109 69.354 68.0952C69.354 62.0464 73.5992 57.1428 78.836 57.1428C84.0728 57.1428 88.3181 62.0464 88.3181 68.0952C88.3181 79.5652 82.7777 90.0085 75.6624 97.2104C68.4121 104.549 58.4266 109.714 47.5452 109.714C36.4536 109.714 26.9027 104.214 20.1965 96.557C13.6114 89.0383 9.14277 78.6956 9.14282 68.0951C9.14285 62.0463 13.3881 57.1428 18.6249 57.1428Z" fill="#2489FF"/>
<path fill-rule="evenodd" clip-rule="evenodd" d="M48.1684 72C53.48 72 57.7859 66.9898 57.7858 60.8095C57.7858 57.0927 59.5047 51.9936 63.2847 47.646C66.9417 43.4398 71.9211 40.6667 77.5018 40.6667C83.2956 40.6667 89.0363 43.5021 93.3437 47.894C97.788 52.4254 99.6221 57.4217 99.6221 60.8095C99.6221 66.9899 103.928 72 109.24 72C114.551 72 118.857 66.9899 118.857 60.8095C118.857 49.0902 113.238 38.4198 106.021 31.0614C98.6668 23.5633 88.5386 18.2857 77.5018 18.2857C66.2517 18.2857 56.5644 23.9054 49.7623 31.729C43.0832 39.4111 38.5507 49.9787 38.5508 60.8096C38.5508 66.9899 42.8567 72 48.1684 72Z" fill="#2489FF"/>
</svg>
