<?xml version="1.0" encoding="UTF-8"?>
<svg width="385px" height="81px" viewBox="0 0 385 81" version="1.1" xmlns="http://www.w3.org/2000/svg" xmlns:xlink="http://www.w3.org/1999/xlink">
    <title>nftinator-light</title>
    <g id="Page-1" stroke="none" strokeWidth="1" fill="none" fill-rule="evenodd">
        <g id="Artboard-Copy" transform="translate(0.000000, -742.000000)" fill-rule="nonzero">
            <g id="nftinator-light" transform="translate(0.000000, 742.000000)">
                <g id="nft-inator" transform="translate(79.416000, 12.824000)" fill="#0F172A">
                    <path d="M19.648,14.208 C23.872,14.208 27.2853333,15.5413333 29.888,18.208 C32.4906667,20.8746667 33.792,24.5973333 33.792,29.376 L33.792,50.176 L24.832,50.176 L24.832,30.592 C24.832,27.776 24.128,25.6106667 22.72,24.096 C21.312,22.5813333 19.392,21.824 16.96,21.824 C14.4853333,21.824 12.5333333,22.5813333 11.104,24.096 C9.67466667,25.6106667 8.96,27.776 8.96,30.592 L8.96,50.176 L0,50.176 L0,14.72 L8.96,14.72 L8.96,19.136 C10.1546667,17.6 11.68,16.3946667 13.536,15.52 C15.392,14.6453333 17.4293333,14.208 19.648,14.208 Z" id="Path"></path>
                    <path d="M57.4565517,22.08 L51.2485517,22.08 L51.2485517,50.176 L42.1605517,50.176 L42.1605517,22.08 L38.1285517,22.08 L38.1285517,14.72 L42.1605517,14.72 L42.1605517,12.928 C42.1605517,8.576 43.3978851,5.376 45.8725517,3.328 C48.3472184,1.28 52.0805517,0.32 57.0725517,0.448 L57.0725517,8 C54.8965517,7.95733333 53.3818851,8.32 52.5285517,9.088 C51.6752184,9.856 51.2485517,11.2426667 51.2485517,13.248 L51.2485517,14.72 L57.4565517,14.72 L57.4565517,22.08 Z" id="Path"></path>
                    <path d="M72.6091034,22.08 L72.6091034,39.232 C72.6091034,40.4266667 72.8971034,41.2906667 73.4731034,41.824 C74.0491034,42.3573333 75.0197701,42.624 76.3851034,42.624 L80.5451034,42.624 L80.5451034,50.176 L74.9131034,50.176 C67.3611034,50.176 63.5851034,46.5066667 63.5851034,39.168 L63.5851034,22.08 L59.3611034,22.08 L59.3611034,14.72 L63.5851034,14.72 L63.5851034,5.952 L72.6091034,5.952 L72.6091034,14.72 L80.5451034,14.72 L80.5451034,22.08 L72.6091034,22.08 Z" id="Path"></path>
                    <polygon id="Path" points="113.169655 23.552 113.169655 31.104 86.0336552 31.104 86.0336552 23.552"></polygon>
                    <path d="M126.658207,10.496 C125.07954,10.496 123.76754,9.99466667 122.722207,8.992 C121.676874,7.98933333 121.154207,6.74133333 121.154207,5.248 C121.154207,3.75466667 121.676874,2.50666667 122.722207,1.504 C123.76754,0.501333333 125.07954,0 126.658207,0 C128.236874,0 129.548874,0.501333333 130.594207,1.504 C131.63954,2.50666667 132.162207,3.75466667 132.162207,5.248 C132.162207,6.74133333 131.63954,7.98933333 130.594207,8.992 C129.548874,9.99466667 128.236874,10.496 126.658207,10.496 Z M131.074207,14.72 L131.074207,50.176 L122.114207,50.176 L122.114207,14.72 L131.074207,14.72 Z" id="Shape"></path>
                    <path d="M158.450759,14.208 C162.674759,14.208 166.088092,15.5413333 168.690759,18.208 C171.293425,20.8746667 172.594759,24.5973333 172.594759,29.376 L172.594759,50.176 L163.634759,50.176 L163.634759,30.592 C163.634759,27.776 162.930759,25.6106667 161.522759,24.096 C160.114759,22.5813333 158.194759,21.824 155.762759,21.824 C153.288092,21.824 151.336092,22.5813333 149.906759,24.096 C148.477425,25.6106667 147.762759,27.776 147.762759,30.592 L147.762759,50.176 L138.802759,50.176 L138.802759,14.72 L147.762759,14.72 L147.762759,19.136 C148.957425,17.6 150.482759,16.3946667 152.338759,15.52 C154.194759,14.6453333 156.232092,14.208 158.450759,14.208 Z" id="Path"></path>
                    <path d="M177.69931,32.32 C177.69931,28.736 178.413977,25.5573333 179.84331,22.784 C181.272644,20.0106667 183.213977,17.8773333 185.66731,16.384 C188.120644,14.8906667 190.861977,14.144 193.89131,14.144 C196.536644,14.144 198.85131,14.6773333 200.83531,15.744 C202.81931,16.8106667 204.408644,18.1546667 205.60331,19.776 L205.60331,14.72 L214.62731,14.72 L214.62731,50.176 L205.60331,50.176 L205.60331,44.992 C204.45131,46.656 202.861977,48.032 200.83531,49.12 C198.808644,50.208 196.472644,50.752 193.82731,50.752 C190.840644,50.752 188.120644,49.984 185.66731,48.448 C183.213977,46.912 181.272644,44.7466667 179.84331,41.952 C178.413977,39.1573333 177.69931,35.9466667 177.69931,32.32 Z M205.60331,32.448 C205.60331,30.272 205.176644,28.4053333 204.32331,26.848 C203.469977,25.2906667 202.317977,24.096 200.86731,23.264 C199.416644,22.432 197.85931,22.016 196.19531,22.016 C194.53131,22.016 192.99531,22.4213333 191.58731,23.232 C190.17931,24.0426667 189.037977,25.2266667 188.16331,26.784 C187.288644,28.3413333 186.85131,30.1866667 186.85131,32.32 C186.85131,34.4533333 187.288644,36.32 188.16331,37.92 C189.037977,39.52 190.189977,40.7466667 191.61931,41.6 C193.048644,42.4533333 194.573977,42.88 196.19531,42.88 C197.85931,42.88 199.416644,42.464 200.86731,41.632 C202.317977,40.8 203.469977,39.6053333 204.32331,38.048 C205.176644,36.4906667 205.60331,34.624 205.60331,32.448 Z" id="Shape"></path>
                    <path d="M232.723862,22.08 L232.723862,39.232 C232.723862,40.4266667 233.011862,41.2906667 233.587862,41.824 C234.163862,42.3573333 235.134529,42.624 236.499862,42.624 L240.659862,42.624 L240.659862,50.176 L235.027862,50.176 C227.475862,50.176 223.699862,46.5066667 223.699862,39.168 L223.699862,22.08 L219.475862,22.08 L219.475862,14.72 L223.699862,14.72 L223.699862,5.952 L232.723862,5.952 L232.723862,14.72 L240.659862,14.72 L240.659862,22.08 L232.723862,22.08 Z" id="Path"></path>
                    <path d="M261.764414,50.752 C258.35108,50.752 255.27908,49.9946667 252.548414,48.48 C249.817747,46.9653333 247.673747,44.8213333 246.116414,42.048 C244.55908,39.2746667 243.780414,36.0746667 243.780414,32.448 C243.780414,28.8213333 244.580414,25.6213333 246.180414,22.848 C247.780414,20.0746667 249.96708,17.9306667 252.740414,16.416 C255.513747,14.9013333 258.60708,14.144 262.020414,14.144 C265.433747,14.144 268.52708,14.9013333 271.300414,16.416 C274.073747,17.9306667 276.260414,20.0746667 277.860414,22.848 C279.460414,25.6213333 280.260414,28.8213333 280.260414,32.448 C280.260414,36.0746667 279.43908,39.2746667 277.796414,42.048 C276.153747,44.8213333 273.93508,46.9653333 271.140414,48.48 C268.345747,49.9946667 265.220414,50.752 261.764414,50.752 Z M261.764414,42.944 C263.385747,42.944 264.91108,42.5493333 266.340414,41.76 C267.769747,40.9706667 268.91108,39.7866667 269.764414,38.208 C270.617747,36.6293333 271.044414,34.7093333 271.044414,32.448 C271.044414,29.0773333 270.15908,26.4853333 268.388414,24.672 C266.617747,22.8586667 264.452414,21.952 261.892414,21.952 C259.332414,21.952 257.188414,22.8586667 255.460414,24.672 C253.732414,26.4853333 252.868414,29.0773333 252.868414,32.448 C252.868414,35.8186667 253.71108,38.4106667 255.396414,40.224 C257.081747,42.0373333 259.204414,42.944 261.764414,42.944 Z" id="Shape"></path>
                    <path d="M294.708966,20.224 C295.860966,18.3466667 297.364966,16.8746667 299.220966,15.808 C301.076966,14.7413333 303.199632,14.208 305.588966,14.208 L305.588966,23.616 L303.220966,23.616 C300.404966,23.616 298.282299,24.2773333 296.852966,25.6 C295.423632,26.9226667 294.708966,29.2266667 294.708966,32.512 L294.708966,50.176 L285.748966,50.176 L285.748966,14.72 L294.708966,14.72 L294.708966,20.224 Z" id="Path"></path>
                </g>
                <g id="Chain-Color" fill="#1D4CD9">
                    <path d="M0,51.7999776 C0,55.7756036 3.13405645,59 7,59 C10.8659436,59 14,55.7756036 14,51.7999776 C14,48.8850496 9.89089407,46.1428091 9.89089407,41 C9.89089407,36.3714382 14,33.1149504 14,30.2000224 C14,26.2243964 10.8659436,23 7,23 C3.13405645,23 0,26.2243964 0,30.2000224 C0,33.1149504 4.10921502,36.3714382 4.10910593,41 C4.10910593,45.6285618 0,48.8850496 0,51.7999776 Z" id="Path"></path>
                    <path d="M35,7.17721944 C35,3.21407266 38.1339718,0 41.9999455,0 C45.8659191,0 49,3.21407266 49,7.17721944 C49,8.42515431 48.2419253,9.64143502 47.3770503,11.0291851 C46.228211,12.8723974 44.8908621,15.0182816 44.8908621,17.9429927 C44.8908621,20.5153693 46.1682108,22.6627077 47.2985047,24.5628526 C48.1955615,26.070732 49,27.423025 49,28.7087659 C49,28.8810183 48.9941091,29.0519284 48.9824363,29.2212726 C48.9941091,29.3906168 49,29.561527 49,29.7338912 C49,30.9818261 48.2419253,32.1981068 47.3770503,33.5858569 C46.228211,35.4290691 44.8908621,37.5749534 44.8908621,40.4996644 C44.8908621,43.0720411 46.1682108,45.2193794 47.2985047,47.1195244 C48.1955615,48.6274038 49,49.9798086 49,51.2654377 C49,51.4378019 48.9941091,51.608712 48.9824363,51.7780563 C48.9941091,51.9474005 49,52.1183106 49,52.2906748 C49,53.5764158 48.1955615,54.9287087 47.2985047,56.4365881 C46.1682108,58.3367331 44.8908621,60.4840714 44.8908621,63.0564481 C44.8908621,65.9811591 46.228211,68.1270434 47.3770503,69.9702556 C48.2419253,71.3580057 49,72.5742864 49,73.8222213 C49,77.7853681 45.8659191,81 41.9999455,81 C38.1339718,81 35,77.7853681 35,73.8222213 C35,72.5365922 35.8044385,71.1842993 36.7013862,69.6764199 C37.8317892,67.7761631 39.1091379,65.6289366 39.1091379,63.0564481 C39.1091379,60.4840714 37.8317892,58.3367331 36.7013862,56.4365881 C35.8044385,54.9287087 35,53.5764158 35,52.2906748 C35,52.1183106 35.0058909,51.9474005 35.0175637,51.7780563 C35.0058909,51.608712 35,51.4378019 35,51.2654377 C35,49.9796968 35.8044385,48.6274038 36.7013862,47.1195244 C37.8317892,45.2193794 39.1091379,43.0720411 39.1091379,40.4996644 C39.1091379,37.9271759 37.8317892,35.7799495 36.7013862,33.8796926 C35.8044385,32.3718132 35,31.0195203 35,29.7338912 C35,29.561527 35.0058909,29.3906168 35.0175637,29.2212726 C35.0058909,29.0520403 35,28.8810183 35,28.7087659 C35,27.423025 35.8044385,26.070732 36.7013862,24.5628526 C37.8317892,22.6627077 39.1091379,20.5153693 39.1091379,17.9429927 C39.1091379,15.3705042 37.8317892,13.2232777 36.7013862,11.3230208 C35.8044385,9.81514147 35,8.4628485 35,7.17721944 Z" id="Path"></path>
                    <path d="M24.9999455,70 C21.1339718,70 18,66.8102775 18,62.877156 C18,61.601267 18.8044385,60.2592191 19.7013862,58.7626526 C20.8317892,56.8769033 22.1091379,54.7459445 22.1091379,52.1929455 C22.1091379,49.6400574 20.8317892,47.5089876 19.7013862,45.6232383 C18.8044385,44.1266718 18,42.7846239 18,41.5087349 C18,41.3376766 18.0058909,41.1680612 18.0175637,41 C18.0058909,40.8319388 18,40.6623234 18,40.4912651 C18,39.2152651 18.8044385,37.8732172 19.7013862,36.3767617 C20.8317892,34.4910124 22.1091379,32.3599426 22.1091379,29.8070545 C22.1091379,27.2540555 20.8317892,25.1229856 19.7013862,23.2372364 C18.8044385,21.7407809 18,20.398733 18,19.122844 C18,15.1897225 21.1339718,12 24.9999455,12 C28.8659191,12 32,15.1897225 32,19.122844 C32,20.3613244 31.2420344,21.5683904 30.3770503,22.9456268 C29.228211,24.7748746 27.8908621,26.9045014 27.8908621,29.8070545 C27.8908621,32.3599426 29.1682108,34.4910124 30.2985047,36.3767617 C31.1955615,37.8732172 32,39.2152651 32,40.4912651 C32,40.6622124 31.9941091,40.8319388 31.9824363,40.999889 C31.9941091,41.1679502 32,41.3376766 32,41.5087349 C32,42.7846239 31.1955615,44.1267828 30.2985047,45.6232383 C29.1682108,47.5089876 27.8908621,49.6400574 27.8908621,52.1929455 C27.8908621,55.0954986 29.228211,57.2250144 30.3770503,59.0543732 C31.2420344,60.4316096 32,61.6385646 32,62.877156 C32,66.8102775 28.8659191,70 24.9999455,70 Z" id="Path"></path>
                </g>
            </g>
        </g>
    </g>
</svg>