<?xml version="1.0" encoding="utf-8"?>
<!-- Generator: Adobe Illustrator 26.1.0, SVG Export Plug-In . SVG Version: 6.00 Build 0)  -->
<svg version="1.1" id="ARTWORK" xmlns="http://www.w3.org/2000/svg" xmlns:xlink="http://www.w3.org/1999/xlink" x="0px" y="0px"
	 viewBox="0 0 4000 2000" style="enable-background:new 0 0 4000 2000;" xml:space="preserve">
<g>
	<path d="M2962.87-1129.46c0-281.92-259.33-277.19-259.33-277.19s-259.33-4.73-259.33,277.19c0,0,2.12,53.06,9.22,74.44
		c7.1,21.39,19.72,47.52,9.46,73.66c-10.25,26.13-10.26,50.69,89.16,83.95c0,0,28.45,6.35,27.26,33.66
		c-0.64,14.67,9.2,26,32.36,33.35l54.58,65.2v-56.61c5.42,0.33,11.1,0.59,17.06,0.77c6.4,0.19,13.11,0.29,20.23,0.27
		c7.12,0.02,13.83-0.08,20.23-0.27c5.96-0.18,11.64-0.43,17.06-0.77v56.61l54.58-65.21c23.17-7.35,32.99-18.68,32.36-33.35
		c-1.18-27.32,27.26-33.66,27.26-33.66c99.41-33.27,99.4-57.82,89.15-83.95c-10.26-26.13,2.36-52.27,9.46-73.66
		C2960.75-1076.4,2962.87-1129.46,2962.87-1129.46z M2630.47-954.7l-35.71-47.98l-9.5-12.94l-45.7,60.92h-35.71l63.56-80.25
		l-58.81-74.15h36.86l26.7,36.2c5.02,6.88,9.06,12.65,12.12,17.3c4.8-6.4,9.23-12.07,13.27-17.01l29.32-36.49h35.22l-60.12,72.69
		l64.7,81.71H2630.47z M2867.03-954.7l-35.71-47.98l-9.5-12.94l-45.7,60.92h-35.71l63.56-80.25l-58.81-74.15h36.86l26.7,36.2
		c5.02,6.88,9.06,12.65,12.12,17.3c4.8-6.4,9.23-12.07,13.27-17.01l29.32-36.49h35.22l-60.12,72.69l64.7,81.71H2867.03z"/>
</g>
</svg>
