<svg id="Layer_1" data-name="Layer 1" xmlns="http://www.w3.org/2000/svg" xmlns:xlink="http://www.w3.org/1999/xlink" viewBox="0 0 806.111 188">
  <defs>
    <linearGradient id="linear-gradient" x1="-402.6774" y1="491.6633" x2="-538.7265" y2="363.1025" gradientTransform="matrix(1, 0, 0, -1, 564, 522)" gradientUnits="userSpaceOnUse">
      <stop offset="0" stop-color="#2bbecd"/>
      <stop offset="1" stop-color="#5161d0"/>
    </linearGradient>
  </defs>
  <g>
    <path id="fullLogo" d="M249.662,124.931c13.529,0,23.142-7.124,23.142-19.146,0-13.18-10.592-16.4751-20.027-19.3248-9.701-2.9387-11.215-4.8979-11.215-7.7476,0-2.4935,2.226-4.72,6.676-4.72,5.696,0,8.633,2.7607,10.77,7.2133l12.015-7.0352c-4.539-9.1724-12.549-14.07-22.785-14.07-10.77,0-20.917,6.9461-20.917,18.9682,0,11.9331,9.079,16.3857,18.336,18.9682,9.345,2.583,12.906,4.096,12.906,7.926,0,2.404-1.692,5.076-8.456,5.076-7.031,0-10.859-3.473-13.084-8.638l-12.283,7.124C228.211,118.697,236.578,124.931,249.662,124.931Z" style="fill: #152232"/>
    <path id="fullLogo-2" data-name="fullLogo" d="M326.872,61.3474H310.673L298.835,85.3916,286.997,61.3474H270.798L291.714,99.729v23.955h14.241V99.729Z" style="fill: #152232"/>
    <path id="fullLogo-3" data-name="fullLogo" d="M365.826,61.3474v33.84l-24.031-33.84H331.114V123.684h14.241v-33.84l24.031,33.84h10.681V61.3474Z" style="fill: #152232"/>
    <path id="fullLogo-4" data-name="fullLogo" d="M419.381,124.931c11.393,0,21.362-5.61,26.702-14.427L433.8,103.38c-2.67,4.809-8.099,7.659-14.419,7.659-11.037,0-18.157-7.392-18.157-18.5232s7.12-18.523,18.157-18.523c6.32,0,11.66,2.85,14.419,7.6586l12.283-7.1243a31.0689,31.0689,0,0,0-26.702-14.4265c-18.78,0-32.398,14.07-32.398,32.4152S400.601,124.931,419.381,124.931Z" style="fill: #152232"/>
    <path id="fullLogo-5" data-name="fullLogo" d="M508.414,61.3474v33.84l-24.031-33.84H473.702V123.684h14.241v-33.84l24.032,33.84h10.68V61.3474Z" style="fill: #152232"/>
    <path id="fullLogo-6" data-name="fullLogo" d="M543.723,106.764H575.32a25.9,25.9,0,0,0,.534-5.343c0-13.4469-9.612-23.51-22.607-23.51-14.063,0-23.676,10.2411-23.676,23.51s9.435,23.51,24.655,23.51c8.456,0,15.042-3.117,19.403-9.172l-10.68-6.145a11.621,11.621,0,0,1-8.545,3.384C549.509,112.998,545.414,111.395,543.723,106.764Zm-.267-9.9737c1.246-4.5417,4.629-7.0352,9.702-7.0352,4.005,0,8.01,1.87,9.435,7.0352Z" style="fill: #152232"/>
    <path id="fullLogo-7" data-name="fullLogo" d="M607.114,91.9815V79.1579h-9.168V66.6905l-13.35,4.0074v8.46h-7.121V91.9815h7.121V107.744c0,12.467,5.073,17.721,22.518,15.94V111.573c-5.874.356-9.168,0-9.168-3.829V91.9815Z" style="fill: #152232"/>
    <path id="fullLogo-8" data-name="fullLogo" d="M663.408,79.1579,657,103.024l-6.943-23.8661H637.596l-6.942,23.8661-6.409-23.8661H610.004l14.241,44.5261h12.461l7.121-23.7769,7.12,23.7769h12.461l14.241-44.5261Z" style="fill: #152232"/>
    <path id="fullLogo-9" data-name="fullLogo" d="M701.483,124.931a23.51,23.51,0,1,0-23.587-23.51A23.3328,23.3328,0,0,0,701.483,124.931Zm0-13.002c-5.786,0-10.236-4.185-10.236-10.508s4.45-10.5082,10.236-10.5082,10.236,4.1855,10.236,10.5082S707.268,111.929,701.483,111.929Z" style="fill: #152232"/>
    <path id="fullLogo-10" data-name="fullLogo" d="M744.884,87.0836V79.1579H731.533V123.684h13.351V103.558c0-8.8159,7.833-11.0422,13.351-10.1517V78.2674C752.628,78.2674,746.664,81.117,744.884,87.0836Z" style="fill: #152232"/>
    <path id="fullLogo-11" data-name="fullLogo" d="M806.111,123.684l-16.644-22.263,16.199-22.2631H790.09L776.739,98.66V61.3474H763.388V123.684h13.351v-19.68l14.241,19.68Z" style="fill: #152232"/>
    <g id="logoMark">
      <path id="logoMark_PathItem_" data-name="logoMark &lt;PathItem&gt;" d="M187.902,94A93.951,93.951,0,1,1,93.9509,0,93.9752,93.9752,0,0,1,187.902,94Z" style="fill: url(#linear-gradient)"/>
      <path id="logoMark_CompoundPathItem_" data-name="logoMark &lt;CompoundPathItem&gt;" d="M129.649,94.3152c0-33.5766-47.1861-22.2268-47.1861-37.36,0-5.675,4.9345-9.3,16.3456-9.3,8.79,0,17.2705,1.734,25.29,6.7783l6.939-17.1824c-7.556-5.0444-21.743-7.5666-30.841-7.5666-25.5974,0-39.013,11.8228-39.013,28.217,0,7.5666,2.6213,12.7687,6.6307,16.3941a24.78,24.78,0,0,0-9.869,20.3352c0,32.4735,47.4943,20.0205,47.4943,36.4145,0,5.675-5.089,9.3-14.0321,9.3-9.4064,0-20.3548-3.467-27.4482-8.67l-7.0935,17.34c7.4017,5.36,21.5885,9.301,34.2331,9.301,22.36,0,35.6207-11.823,35.6207-28.059,0-7.882-2.775-13.084-6.939-16.71C126.102,108.66,129.649,101.882,129.649,94.3152ZM78.762,92.8964c0-4.5715,2.93-8.3549,7.556-10.4038,11.4112,2.8375,22.513,4.2562,22.513,12.4532,0,4.7289-2.929,8.3552-7.401,10.4042C89.8647,102.512,78.762,101.251,78.762,92.8964Z" style="fill: #fff;fill-rule: evenodd"/>
    </g>
  </g>
</svg>
