<svg version="1.2" xmlns="http://www.w3.org/2000/svg" viewBox="0 0 1694 433" width="1694" height="433">
	<title>logo 1-svg</title>
	<defs>
		<clipPath clipPathUnits="userSpaceOnUse" id="cp1">
			<path d="m-496-1114h2666.67v2665.63h-2666.67z"/>
		</clipPath>
		<linearGradient id="g1" x1="104.8" y1="58.3" x2="317.9" y2="369.4" gradientUnits="userSpaceOnUse">
			<stop offset="0" stop-color="#b276e7"/>
			<stop offset=".4" stop-color="#8cb7e7"/>
			<stop offset=".7" stop-color="#f2bd67"/>
			<stop offset="1" stop-color="#d259d6"/>
		</linearGradient>
		<linearGradient id="g2" x1="104.8" y1="58.3" x2="317.9" y2="369.4" gradientUnits="userSpaceOnUse">
			<stop offset="0" stop-color="#b276e7"/>
			<stop offset=".4" stop-color="#8cb7e7"/>
			<stop offset=".7" stop-color="#f2bd67"/>
			<stop offset="1" stop-color="#d259d6"/>
		</linearGradient>
	</defs>
	<style>
		.s0 { fill: #000000 } 
		.s1 { fill: url(#g1) } 
		.s2 { fill: url(#g2) } 
	</style>
	<g id="g10">
		<g id="g14">
			<g id="Clip-Path: g16" clip-path="url(#cp1)">
				<g id="g16">
					<g id="g22">
						<path id="path24" class="s0" d="m644.4 250.3h1.1l33-122.6q1.5-6.1 8-9 6.5-2.9 13.9-0.8 7.4 2.1 11.3 8.1 4 5.9 2.1 13l-47.7 167.9q-2.4 6.3-8.5 9.5-6.1 3.2-12.7 3.2-6.6 0-12.5-3.2-6-3.2-8.3-9.2l-33.1-120.6h-1l-33 120.6q-2.4 6-8.3 9.2-6 3.2-12.6 3.2-6.6 0-12.5-3.2-6-3.2-8.6-9.5l-47.8-167.9q-1.9-7.1 2.1-13 4-6 11.4-8.1 7.4-2.1 13.8 0.8 6.5 2.9 8.1 9l33 122.6h1l32.3-118.7q1.8-7.1 8.2-10.8 6.3-3.7 13.4-3.7 7.2 0 13.5 3.7 6.3 3.7 8.2 10.8z"/>
					</g>
					<g id="g26">
						<path id="path28" class="s0" d="m765.9 133q0-6.6 5.5-11.3 5.6-4.6 13.2-4.6 7.7 0 13.2 4.6 5.6 4.7 5.6 11.3v170.7q0 6.9-5.6 11.4-5.5 4.5-13.2 4.5-7.6 0-13.2-4.5-5.5-4.5-5.5-11.4z"/>
					</g>
					<g id="g30">
						<path id="path32" class="s0" d="m1002.8 290.9c0.4 20.8-20.4 30.9-30.1 17l-73.2-122.6h-0.8l0.3 118.4c0 4.4-1.9 8.2-5.6 11.3-3.7 3-8.1 4.6-13.1 4.6-5.2 0-9.5-1.6-13.2-4.6-3.7-3.1-5.6-6.9-5.6-11.3v-169.4c0-4.8 2.1-8.8 6.4-12.2 4.3-3.4 9.6-5 15.7-5q7.2 0 12.7 3.2c3.7 2.1 6.4 4.9 8 8.2l61.4 102.1 2.2-95.5c0-4.4 1.9-8.1 5.6-11.3 3.7-3.1 8-4.5 13.1-4.5 5.2 0 9.5 1.4 13.2 4.5 3.7 3.2 5.6 6.9 5.6 11.3z"/>
					</g>
					<g id="g34">
						<path id="path36" class="s0" d="m1072.5 150q-4.5-5.1-4.5-12.8 0-7.7 4.5-12.8 4.5-5.2 10.8-5.2h127.8q6.4 0 10.8 5.2 4.5 5.1 4.5 12.8 0 7.7-4.5 12.8-4.4 5.2-10.8 5.2h-45.1v148.5q0 6.6-5.6 11.3-5.5 4.6-13.2 4.6-7.7 0-13.2-4.6-5.5-4.7-5.5-11.3v-148.5h-45.2q-6.3 0-10.8-5.2z"/>
					</g>
					<g id="g38">
						<path id="path40" class="s0" d="m1278.2 135.1q0-6.6 5.5-11.3 5.6-4.6 13.2-4.6h113.1q6.6 0 11.2 5.2 4.6 5.1 4.6 12.8 0 7.7-4.6 12.8-4.6 5.2-11.2 5.2h-94.3v44.9h76.1q6.6 0 11.2 5.2 4.6 5.1 4.6 12.8 0 7.6-4.6 12.8-4.6 5.2-11.2 5.2h-76.1v45.4h94.3q6.6 0 11.2 5.2 4.6 5.1 4.6 12.8 0 7.7-4.6 12.8-4.6 5.2-11.2 5.2h-113.1q-7.6 0-13.2-4.7-5.5-4.6-5.5-11.2z"/>
						<path id="Shape 1" class="s0" d="m2711 1231"/>
					</g>
					<g id="g42">
						<path id="path44" class="s0" d="m1605.1 248.2l23.3 46.3c2.2 4.2 2.4 8.5 0.6 12.9-1.8 4.4-5.2 7.9-10.1 10.3-2.3 1.1-4.7 1.7-7.2 1.9-2.4 0.1-4.8 0-7-0.5-2.2-0.5-4.1-1.5-5.8-2.8-1.7-1.3-2.9-3-3.8-4.9l-28.5-56.9h-40.7v49.2c0 4.4-1.8 8.2-5.5 11.3-3.7 3.1-8.1 4.6-13.2 4.6-5.2 0-9.5-1.5-13.2-4.6-3.7-3.1-5.6-6.9-5.6-11.3v-61.2c0-13.3 10.8-24.1 24.1-24.1h13.4v0.2h48.9c4.1 0 8.3-0.8 12.1-2.5 3.9-1.7 7.3-3.9 10-6.9 2.9-2.9 5.1-6.2 6.8-10 1.7-3.8 2.5-7.9 2.5-12.3 0-4.4-0.8-8.5-2.5-12.3-1.7-3.8-3.9-7.1-6.8-10-2.7-3-6.1-5.3-10-6.9-3.8-1.7-8-2.5-12.1-2.5h-66.4c-11 0-20-9-20-20.1 0-4.4 1.9-8.1 5.6-11.3 3.7-3.1 8-4.5 13.2-4.5h68.4c9.7 0 18.7 1.6 27.1 5 8.5 3.5 15.9 8.3 22.2 14.2 6.4 6 11.3 13.1 14.9 21.4 3.7 8.3 5.5 17.3 5.5 27 0 14.3-3.8 26.7-11.3 37.5-7.4 10.8-17.1 18.7-28.9 23.8z"/>
					</g>
				</g>
			</g>
		</g>
		<g id="g46">
			<g id="g48">
				<g id="g54">
					<g id="g56">
						<path id="path68" fill-rule="evenodd" class="s1" d="m214.4 33.3c9.1 0 16.5 7.4 16.5 16.5v128.6l36.2-36.2 1.7-83.3c0.1-9 7.5-16.2 16.5-16.2 0.1 0 0.2 0 0.3 0 9.2 0.2 16.4 7.7 16.2 16.9l-1 48.9 21-21c6.4-6.5 16.9-6.5 23.4 0 6.4 6.4 6.4 16.9 0 23.4l-50.1 50.1c0 0-0.1 0-0.1 0l-40.7 40.8h51.1l60.2-57.7c6.5-6.4 17-6.2 23.3 0.4 6.3 6.6 6.1 17.1-0.4 23.4l-35.3 33.9h29.6c9.2 0 16.6 7.4 16.6 16.5 0 9.1-7.4 16.5-16.6 16.5h-128.5l36.2 36.2 83.3 1.7c9.1 0.2 16.4 7.7 16.2 16.9-0.2 9-7.6 16.2-16.5 16.2h-0.4l-48.9-1 21 20.9c6.4 6.5 6.4 17 0 23.4-3.2 3.2-7.4 4.9-11.7 4.9-4.2 0-8.5-1.7-11.7-4.9l-90.9-90.9v51.2l57.7 60.1c6.3 6.6 6.1 17-0.4 23.3-3.3 3.2-7.4 4.7-11.5 4.7-4.3 0-8.7-1.7-11.9-5.1l-33.9-35.3v29.7c0 9.1-7.4 16.5-16.5 16.5-9.1 0-16.5-7.4-16.5-16.5v-128.6l-36.2 36.2-1.7 83.3c-0.2 9-7.6 16.2-16.5 16.2h-0.4c-9.1-0.2-16.4-7.7-16.2-16.8l1-49-21 21c-3.2 3.2-7.4 4.9-11.7 4.9-4.2 0-8.4-1.7-11.7-4.9-6.4-6.4-6.4-16.9 0-23.4l50.2-50.1q0 0 0 0l40.8-40.8h-51.2l-60.1 57.7c-3.2 3.1-7.4 4.7-11.5 4.7-4.3 0-8.7-1.8-11.9-5.1-6.3-6.6-6.1-17.1 0.5-23.4l35.3-33.9h-29.7c-9.1 0-16.5-7.4-16.5-16.5 0-9.1 7.4-16.5 16.5-16.5h128.6l-36.2-36.2-83.3-1.7c-9.2-0.2-16.4-7.7-16.2-16.9 0.1-9 7.5-16.2 16.5-16.2h0.3l48.9 1-21-20.9c-6.4-6.5-6.4-17 0-23.4 6.5-6.5 17-6.5 23.4 0l91 90.9v-51.2l-57.8-60.1c-6.3-6.6-6.1-17 0.5-23.4 6.6-6.3 17-6.1 23.4 0.5l33.9 35.3v-29.7c0-9.1 7.4-16.5 16.5-16.5zm0 208.7c13 0 23.7-10.6 23.7-23.7 0-13.1-10.7-23.7-23.7-23.7-13.1 0-23.7 10.6-23.7 23.7 0 13.1 10.6 23.7 23.7 23.7z"/>
					</g>
				</g>
			</g>
		</g>
		<g id="g70">
			<g id="g72">
				<g id="g78">
					<g id="g80">
						<path id="path92" fill-rule="evenodd" class="s2" d="m214.6 33.3c9 0.1 16.3 7.5 16.3 16.5v128.6l36.2-36.2 1.7-83.3c0.1-9 7.5-16.2 16.5-16.2 0.1 0 0.2 0 0.3 0 9.2 0.2 16.4 7.7 16.2 16.9l-1 48.9 21-21c6.4-6.5 16.9-6.5 23.4 0 6.4 6.4 6.4 16.9 0 23.4l-50.1 50.1c0 0-0.1 0-0.1 0l-40.7 40.8h51.1l60.2-57.7c6.5-6.4 17-6.2 23.3 0.4 6.3 6.6 6.1 17.1-0.4 23.4l-35.3 33.9h29.6c9.1 0 16.5 7.3 16.6 16.3v0.4c-0.1 9-7.5 16.3-16.6 16.3h-128.5l36.2 36.2 83.3 1.7c9.1 0.2 16.4 7.7 16.2 16.9-0.2 9-7.6 16.2-16.5 16.2h-0.4l-48.9-1 21 20.9c6.4 6.5 6.4 17 0 23.4-3.2 3.2-7.4 4.9-11.7 4.9-4.2 0-8.5-1.7-11.7-4.9l-90.9-90.9v51.2l57.7 60.1c6.3 6.6 6.1 17-0.4 23.3-3.3 3.2-7.4 4.7-11.5 4.7-4.3 0-8.7-1.7-11.9-5.1l-33.9-35.3v29.7c0 9.1-7.4 16.5-16.5 16.5-9.1 0-16.5-7.4-16.5-16.5v-128.6l-36.2 36.2-1.7 83.3c-0.2 9-7.6 16.2-16.5 16.2h-0.4c-9.1-0.2-16.4-7.7-16.2-16.8l1-49-21 21c-3.2 3.2-7.4 4.9-11.7 4.9-4.2 0-8.4-1.7-11.7-4.9-6.4-6.4-6.4-16.9 0-23.4l50.2-50.1q0 0 0 0l40.8-40.8h-51.2l-60.1 57.7c-3.2 3.1-7.4 4.7-11.5 4.7-4.3 0-8.7-1.8-11.9-5.1-6.3-6.6-6.1-17.1 0.5-23.4l35.3-33.9h-29.7c-9.1 0-16.5-7.4-16.5-16.5 0-9.1 7.4-16.5 16.5-16.5h128.6l-36.2-36.2-83.3-1.7c-9.2-0.2-16.4-7.7-16.2-16.9 0.1-9 7.5-16.2 16.5-16.2h0.3l48.9 1-21-20.9c-6.4-6.5-6.4-17 0-23.4 6.5-6.5 17-6.5 23.4 0l91 90.9v-51.2l-57.8-60.1c-6.3-6.6-6.1-17 0.5-23.4 6.6-6.3 17-6.1 23.4 0.5l33.9 35.3v-29.7c0-9 7.2-16.4 16.3-16.5zm-0.2 208.7c13.1 0 23.7-10.6 23.7-23.7 0-13.1-10.6-23.7-23.7-23.7-13.1 0-23.7 10.6-23.7 23.7 0 13.1 10.6 23.7 23.7 23.7z"/>
					</g>
				</g>
			</g>
		</g>
	</g>
</svg>